ISO-10303-21;
HEADER;
FILE_DESCRIPTION(('Open CASCADE Model'),'2;1');
FILE_NAME('plinth','2000-01-01T00:00:00',('Author'),('Open CASCADE'),
  'Open CASCADE STEP processor 7.9','cadgen','Unknown');
FILE_SCHEMA(('AUTOMOTIVE_DESIGN { 1 0 10303 214 1 1 1 1 }'));
ENDSEC;
DATA;
#1 = APPLICATION_PROTOCOL_DEFINITION('international standard',
  'automotive_design',2000,#2);
#2 = APPLICATION_CONTEXT(
  'core data for automotive mechanical design processes');
#3 = SHAPE_DEFINITION_REPRESENTATION(#4,#10);
#4 = PRODUCT_DEFINITION_SHAPE('','',#5);
#5 = PRODUCT_DEFINITION('design','',#6,#9);
#6 = PRODUCT_DEFINITION_FORMATION('','',#7);
#7 = PRODUCT('=>[0:1:1:2]','=>[0:1:1:2]','',(#8));
#8 = PRODUCT_CONTEXT('',#2,'mechanical');
#9 = PRODUCT_DEFINITION_CONTEXT('part definition',#2,'design');
#10 = SHAPE_REPRESENTATION('',(#11,#15),#19);
#11 = AXIS2_PLACEMENT_3D('',#12,#13,#14);
#12 = CARTESIAN_POINT('',(0.,0.,0.));
#13 = DIRECTION('',(0.,0.,1.));
#14 = DIRECTION('',(1.,0.,-0.));
#15 = AXIS2_PLACEMENT_3D('',#16,#17,#18);
#16 = CARTESIAN_POINT('',(0.,0.,0.));
#17 = DIRECTION('',(0.,0.,1.));
#18 = DIRECTION('',(1.,0.,0.));
#19 = ( GEOMETRIC_REPRESENTATION_CONTEXT(3) 
GLOBAL_UNCERTAINTY_ASSIGNED_CONTEXT((#23)) GLOBAL_UNIT_ASSIGNED_CONTEXT(
(#20,#21,#22)) REPRESENTATION_CONTEXT('Context #1',
  '3D Context with UNIT and UNCERTAINTY') );
#20 = ( LENGTH_UNIT() NAMED_UNIT(*) SI_UNIT(.MILLI.,.METRE.) );
#21 = ( NAMED_UNIT(*) PLANE_ANGLE_UNIT() SI_UNIT($,.RADIAN.) );
#22 = ( NAMED_UNIT(*) SI_UNIT($,.STERADIAN.) SOLID_ANGLE_UNIT() );
#23 = UNCERTAINTY_MEASURE_WITH_UNIT(LENGTH_MEASURE(1.E-07),#20,
  'distance_accuracy_value','confusion accuracy');
#24 = PRODUCT_RELATED_PRODUCT_CATEGORY('part',$,(#7));
#25 = SHAPE_DEFINITION_REPRESENTATION(#26,#32);
#26 = PRODUCT_DEFINITION_SHAPE('','',#27);
#27 = PRODUCT_DEFINITION('design','',#28,#31);
#28 = PRODUCT_DEFINITION_FORMATION('','',#29);
#29 = PRODUCT('plinth','plinth','',(#30));
#30 = PRODUCT_CONTEXT('',#2,'mechanical');
#31 = PRODUCT_DEFINITION_CONTEXT('part definition',#2,'design');
#32 = ADVANCED_BREP_SHAPE_REPRESENTATION('',(#11,#33),#753);
#33 = MANIFOLD_SOLID_BREP('',#34);
#34 = CLOSED_SHELL('',(#35,#381,#416,#446,#723));
#35 = ADVANCED_FACE('',(#36,#123),#50,.T.);
#36 = FACE_BOUND('',#37,.T.);
#37 = EDGE_LOOP('',(#38,#68,#95,#96));
#38 = ORIENTED_EDGE('',*,*,#39,.T.);
#39 = EDGE_CURVE('',#40,#42,#44,.T.);
#40 = VERTEX_POINT('',#41);
#41 = CARTESIAN_POINT('',(160.,-3.918869757272E-14,-80.));
#42 = VERTEX_POINT('',#43);
#43 = CARTESIAN_POINT('',(160.,-3.918869757272E-14,0.));
#44 = SEAM_CURVE('',#45,(#49,#61),.PCURVE_S1.);
#45 = LINE('',#46,#47);
#46 = CARTESIAN_POINT('',(160.,-3.918869757272E-14,-80.));
#47 = VECTOR('',#48,1.);
#48 = DIRECTION('',(0.,0.,1.));
#49 = PCURVE('',#50,#55);
#50 = CYLINDRICAL_SURFACE('',#51,160.);
#51 = AXIS2_PLACEMENT_3D('',#52,#53,#54);
#52 = CARTESIAN_POINT('',(0.,0.,-80.));
#53 = DIRECTION('',(0.,0.,1.));
#54 = DIRECTION('',(1.,0.,0.));
#55 = DEFINITIONAL_REPRESENTATION('',(#56),#60);
#56 = LINE('',#57,#58);
#57 = CARTESIAN_POINT('',(6.28318530718,-0.));
#58 = VECTOR('',#59,1.);
#59 = DIRECTION('',(0.,1.));
#60 = ( GEOMETRIC_REPRESENTATION_CONTEXT(2) 
PARAMETRIC_REPRESENTATION_CONTEXT() REPRESENTATION_CONTEXT('2D SPACE',''
  ) );
#61 = PCURVE('',#50,#62);
#62 = DEFINITIONAL_REPRESENTATION('',(#63),#67);
#63 = LINE('',#64,#65);
#64 = CARTESIAN_POINT('',(0.,-0.));
#65 = VECTOR('',#66,1.);
#66 = DIRECTION('',(0.,1.));
#67 = ( GEOMETRIC_REPRESENTATION_CONTEXT(2) 
PARAMETRIC_REPRESENTATION_CONTEXT() REPRESENTATION_CONTEXT('2D SPACE',''
  ) );
#68 = ORIENTED_EDGE('',*,*,#69,.F.);
#69 = EDGE_CURVE('',#42,#42,#70,.T.);
#70 = SURFACE_CURVE('',#71,(#76,#83),.PCURVE_S1.);
#71 = CIRCLE('',#72,160.);
#72 = AXIS2_PLACEMENT_3D('',#73,#74,#75);
#73 = CARTESIAN_POINT('',(0.,0.,0.));
#74 = DIRECTION('',(0.,0.,1.));
#75 = DIRECTION('',(1.,0.,0.));
#76 = PCURVE('',#50,#77);
#77 = DEFINITIONAL_REPRESENTATION('',(#78),#82);
#78 = LINE('',#79,#80);
#79 = CARTESIAN_POINT('',(0.,80.));
#80 = VECTOR('',#81,1.);
#81 = DIRECTION('',(1.,0.));
#82 = ( GEOMETRIC_REPRESENTATION_CONTEXT(2) 
PARAMETRIC_REPRESENTATION_CONTEXT() REPRESENTATION_CONTEXT('2D SPACE',''
  ) );
#83 = PCURVE('',#84,#89);
#84 = PLANE('',#85);
#85 = AXIS2_PLACEMENT_3D('',#86,#87,#88);
#86 = CARTESIAN_POINT('',(0.,0.,0.));
#87 = DIRECTION('',(0.,0.,1.));
#88 = DIRECTION('',(1.,0.,0.));
#89 = DEFINITIONAL_REPRESENTATION('',(#90),#94);
#90 = CIRCLE('',#91,160.);
#91 = AXIS2_PLACEMENT_2D('',#92,#93);
#92 = CARTESIAN_POINT('',(0.,0.));
#93 = DIRECTION('',(1.,0.));
#94 = ( GEOMETRIC_REPRESENTATION_CONTEXT(2) 
PARAMETRIC_REPRESENTATION_CONTEXT() REPRESENTATION_CONTEXT('2D SPACE',''
  ) );
#95 = ORIENTED_EDGE('',*,*,#39,.F.);
#96 = ORIENTED_EDGE('',*,*,#97,.T.);
#97 = EDGE_CURVE('',#40,#40,#98,.T.);
#98 = SURFACE_CURVE('',#99,(#104,#111),.PCURVE_S1.);
#99 = CIRCLE('',#100,160.);
#100 = AXIS2_PLACEMENT_3D('',#101,#102,#103);
#101 = CARTESIAN_POINT('',(0.,0.,-80.));
#102 = DIRECTION('',(0.,0.,1.));
#103 = DIRECTION('',(1.,0.,0.));
#104 = PCURVE('',#50,#105);
#105 = DEFINITIONAL_REPRESENTATION('',(#106),#110);
#106 = LINE('',#107,#108);
#107 = CARTESIAN_POINT('',(0.,0.));
#108 = VECTOR('',#109,1.);
#109 = DIRECTION('',(1.,0.));
#110 = ( GEOMETRIC_REPRESENTATION_CONTEXT(2) 
PARAMETRIC_REPRESENTATION_CONTEXT() REPRESENTATION_CONTEXT('2D SPACE',''
  ) );
#111 = PCURVE('',#112,#117);
#112 = PLANE('',#113);
#113 = AXIS2_PLACEMENT_3D('',#114,#115,#116);
#114 = CARTESIAN_POINT('',(0.,0.,-80.));
#115 = DIRECTION('',(0.,0.,1.));
#116 = DIRECTION('',(1.,0.,0.));
#117 = DEFINITIONAL_REPRESENTATION('',(#118),#122);
#118 = CIRCLE('',#119,160.);
#119 = AXIS2_PLACEMENT_2D('',#120,#121);
#120 = CARTESIAN_POINT('',(0.,0.));
#121 = DIRECTION('',(1.,0.));
#122 = ( GEOMETRIC_REPRESENTATION_CONTEXT(2) 
PARAMETRIC_REPRESENTATION_CONTEXT() REPRESENTATION_CONTEXT('2D SPACE',''
  ) );
#123 = FACE_BOUND('',#124,.T.);
#124 = EDGE_LOOP('',(#125));
#125 = ORIENTED_EDGE('',*,*,#126,.T.);
#126 = EDGE_CURVE('',#127,#127,#129,.T.);
#127 = VERTEX_POINT('',#128);
#128 = CARTESIAN_POINT('',(8.,159.7998748435,-40.));
#129 = SURFACE_CURVE('',#130,(#210,#293),.PCURVE_S1.);
#130 = B_SPLINE_CURVE_WITH_KNOTS('',8,(#131,#132,#133,#134,#135,#136,
    #137,#138,#139,#140,#141,#142,#143,#144,#145,#146,#147,#148,#149,
    #150,#151,#152,#153,#154,#155,#156,#157,#158,#159,#160,#161,#162,
    #163,#164,#165,#166,#167,#168,#169,#170,#171,#172,#173,#174,#175,
    #176,#177,#178,#179,#180,#181,#182,#183,#184,#185,#186,#187,#188,
    #189,#190,#191,#192,#193,#194,#195,#196,#197,#198,#199,#200,#201,
    #202,#203,#204,#205,#206,#207,#208,#209),.UNSPECIFIED.,.T.,.F.,(9,7,
    7,7,7,7,7,7,7,7,7,9),(0.,0.129917806103,0.200176661492,
    0.250519357049,0.326896130316,0.429988076376,0.499433951495,
    0.596391273224,0.672007410236,0.751283761578,0.827610694719,1.),
  .UNSPECIFIED.);
#131 = CARTESIAN_POINT('',(8.,159.7998748435,-40.));
#132 = CARTESIAN_POINT('',(8.,159.7998748435,-39.2947137399));
#133 = CARTESIAN_POINT('',(7.92893854967,159.80343230802,-38.59031394404
    ));
#134 = CARTESIAN_POINT('',(7.787129768184,159.81053184312,
    -37.89025231612));
#135 = CARTESIAN_POINT('',(7.573293253631,159.82105936438,
    -37.19823708081));
#136 = CARTESIAN_POINT('',(7.284870391681,159.83479282909,
    -36.51899023742));
#137 = CARTESIAN_POINT('',(6.918268978142,159.85134288759,
    -35.85881336836));
#138 = CARTESIAN_POINT('',(6.4691933032,159.87006350266,-35.2263237057)
  );
#139 = CARTESIAN_POINT('',(5.643363640413,159.90070849559,
    -34.31324640863));
#140 = CARTESIAN_POINT('',(5.327361964394,159.9118334447,-34.00362523986
    ));
#141 = CARTESIAN_POINT('',(4.984814229324,159.92315218311,
    -33.70747623498));
#142 = CARTESIAN_POINT('',(4.615518925982,159.93445447241,
    -33.42760506591));
#143 = CARTESIAN_POINT('',(4.219490373608,159.94549463501,
    -33.16701730101));
#144 = CARTESIAN_POINT('',(3.796994955271,159.9559953388,-32.92894087641
    ));
#145 = CARTESIAN_POINT('',(3.348603838717,159.96565561717,
    -32.71685923197));
#146 = CARTESIAN_POINT('',(2.536097891572,159.98025902298,
    -32.40392843441));
#147 = CARTESIAN_POINT('',(2.184021131306,159.98576491079,-32.28855049)
  );
#148 = CARTESIAN_POINT('',(1.820808788361,159.9905395874,-32.19038569005
    ));
#149 = CARTESIAN_POINT('',(1.448427218777,159.99445632638,-32.111032018)
  );
#150 = CARTESIAN_POINT('',(1.068991751151,159.99741247484,
    -32.05171460367));
#151 = CARTESIAN_POINT('',(0.684725448569,159.99933625434,
    -32.01327904644));
#152 = CARTESIAN_POINT('',(0.297917129498,160.00019076306,
    -31.99618448718));
#153 = CARTESIAN_POINT('',(-0.676311808651,159.99964810922,
    -32.00703823575));
#154 = CARTESIAN_POINT('',(-1.257792525352,159.9968618849,
    -32.06278156265));
#155 = CARTESIAN_POINT('',(-1.8272536309,159.99170166815,-32.1661413879)
  );
#156 = CARTESIAN_POINT('',(-2.378664413066,159.98440502218,
    -32.31427793896));
#157 = CARTESIAN_POINT('',(-2.90649627205,159.97533442899,
    -32.50315401752));
#158 = CARTESIAN_POINT('',(-3.405917559715,159.9649384696,
    -32.72758418006));
#159 = CARTESIAN_POINT('',(-3.87296030497,159.95370166733,
    -32.98127577389));
#160 = CARTESIAN_POINT('',(-4.887357447799,159.92640032467,
    -33.62884275269));
#161 = CARTESIAN_POINT('',(-5.411906755383,159.90985472379,
    -34.04469927508));
#162 = CARTESIAN_POINT('',(-5.879457807769,159.89326257535,
    -34.49475572413));
#163 = CARTESIAN_POINT('',(-6.29188745633,159.87727482933,
    -34.97139647416));
#164 = CARTESIAN_POINT('',(-6.651385618168,159.86237673222,
    -35.46862406387));
#165 = CARTESIAN_POINT('',(-6.960145461728,159.84891814583,
    -35.98172587516));
#166 = CARTESIAN_POINT('',(-7.220137767053,159.83715149467,
    -36.50703237456));
#167 = CARTESIAN_POINT('',(-7.576308013848,159.82058738673,
    -37.40195194586));
#168 = CARTESIAN_POINT('',(-7.698283484,159.81476767959,-37.76649333649)
  );
#169 = CARTESIAN_POINT('',(-7.799318241808,159.8098510464,
    -38.13445254963));
#170 = CARTESIAN_POINT('',(-7.879774565185,159.8058793577,
    -38.50502607006));
#171 = CARTESIAN_POINT('',(-7.939930508909,159.80288204081,
    -38.87750119755));
#172 = CARTESIAN_POINT('',(-7.97997451115,159.80087755113,-39.2512288352
    ));
#173 = CARTESIAN_POINT('',(-8.,159.7998748435,-39.62559627777));
#174 = CARTESIAN_POINT('',(-8.,159.7998748435,-40.52272625393));
#175 = CARTESIAN_POINT('',(-7.960965562827,159.8018290521,
    -41.04525154171));
#176 = CARTESIAN_POINT('',(-7.882947772488,159.8057347165,
    -41.56602550844));
#177 = CARTESIAN_POINT('',(-7.765584670393,159.81155675993,
    -42.08342784948));
#178 = CARTESIAN_POINT('',(-7.60813823364,159.81922523386,
    -42.59564428322));
#179 = CARTESIAN_POINT('',(-7.409537009316,159.8286270589,
    -43.10052152535));
#180 = CARTESIAN_POINT('',(-7.1684244048,159.83959205445,-43.59540126473
    ));
#181 = CARTESIAN_POINT('',(-6.660778557445,159.86145125597,
    -44.45247548928));
#182 = CARTESIAN_POINT('',(-6.411359906008,159.87183691279,
    -44.82017294448));
#183 = CARTESIAN_POINT('',(-6.134168803801,159.88291334189,
    -45.17835593154));
#184 = CARTESIAN_POINT('',(-5.82838671984,159.89453357681,
    -45.52503540517));
#185 = CARTESIAN_POINT('',(-5.493204912609,159.90651264557,
    -45.85786458938));
#186 = CARTESIAN_POINT('',(-5.127882335727,159.9186220159,
    -46.17408375124));
#187 = CARTESIAN_POINT('',(-4.731821004777,159.93058641072,
    -46.47044800853));
#188 = CARTESIAN_POINT('',(-3.85681977457,159.9541360713,-47.02902795634
    ));
#189 = CARTESIAN_POINT('',(-3.370540630199,159.96578957555,
    -47.29161308316));
#190 = CARTESIAN_POINT('',(-2.849262525476,159.97652058526,
    -47.52243493067));
#191 = CARTESIAN_POINT('',(-2.297617729285,159.98578394641,
    -47.71436321393));
#192 = CARTESIAN_POINT('',(-1.721258546446,159.99307422861,
    -47.86163441515));
#193 = CARTESIAN_POINT('',(-1.126639148426,159.99799552551,
    -47.95990211779));
#194 = CARTESIAN_POINT('',(-0.520759262526,160.00031488803,
    -48.0062981659));
#195 = CARTESIAN_POINT('',(0.676311808651,159.99964810922,
    -47.99296176424));
#196 = CARTESIAN_POINT('',(1.257792525351,159.9968618849,-47.93721843734
    ));
#197 = CARTESIAN_POINT('',(1.8272536309,159.99170166815,-47.8338586121)
  );
#198 = CARTESIAN_POINT('',(2.378664413067,159.98440502218,
    -47.68572206103));
#199 = CARTESIAN_POINT('',(2.906496272051,159.97533442899,
    -47.49684598247));
#200 = CARTESIAN_POINT('',(3.405917559715,159.9649384696,-47.27241581993
    ));
#201 = CARTESIAN_POINT('',(3.87296030497,159.95370166733,-47.0187242261)
  );
#202 = CARTESIAN_POINT('',(5.279677798938,159.91584146968,
    -46.12070927798));
#203 = CARTESIAN_POINT('',(6.091661830811,159.88718965691,
    -45.37557563297));
#204 = CARTESIAN_POINT('',(6.746644401196,159.85994207822,
    -44.55286146802));
#205 = CARTESIAN_POINT('',(7.255699559221,159.83660013833,
    -43.68106780745));
#206 = CARTESIAN_POINT('',(7.629337338737,159.81842953864,
    -42.77953097442));
#207 = CARTESIAN_POINT('',(7.875955523521,159.80608517577,-41.8604945804
    ));
#208 = CARTESIAN_POINT('',(8.,159.7998748435,-40.93183619709));
#209 = CARTESIAN_POINT('',(8.,159.7998748435,-40.));
#210 = PCURVE('',#50,#211);
#211 = DEFINITIONAL_REPRESENTATION('',(#212),#292);
#212 = B_SPLINE_CURVE_WITH_KNOTS('',8,(#213,#214,#215,#216,#217,#218,
    #219,#220,#221,#222,#223,#224,#225,#226,#227,#228,#229,#230,#231,
    #232,#233,#234,#235,#236,#237,#238,#239,#240,#241,#242,#243,#244,
    #245,#246,#247,#248,#249,#250,#251,#252,#253,#254,#255,#256,#257,
    #258,#259,#260,#261,#262,#263,#264,#265,#266,#267,#268,#269,#270,
    #271,#272,#273,#274,#275,#276,#277,#278,#279,#280,#281,#282,#283,
    #284,#285,#286,#287,#288,#289,#290,#291),.UNSPECIFIED.,.F.,.F.,(9,7,
    7,7,7,7,7,7,7,7,7,9),(0.,0.129917806103,0.200176661492,
    0.250519357049,0.326896130316,0.429988076376,0.499433951495,
    0.596391273224,0.672007410236,0.751283761578,0.827610694719,1.),
  .UNSPECIFIED.);
#213 = CARTESIAN_POINT('',(1.520775469989,40.));
#214 = CARTESIAN_POINT('',(1.520775469989,40.705286260093));
#215 = CARTESIAN_POINT('',(1.521220160206,41.40968605596));
#216 = CARTESIAN_POINT('',(1.522107575296,42.10974768388));
#217 = CARTESIAN_POINT('',(1.523445671374,42.801762919183));
#218 = CARTESIAN_POINT('',(1.525250351674,43.481009762577));
#219 = CARTESIAN_POINT('',(1.527543927589,44.141186631638));
#220 = CARTESIAN_POINT('',(1.530353058948,44.773676294291));
#221 = CARTESIAN_POINT('',(1.5355180468,45.686753591363));
#222 = CARTESIAN_POINT('',(1.537494277211,45.996374760134));
#223 = CARTESIAN_POINT('',(1.539636360531,46.292523765018));
#224 = CARTESIAN_POINT('',(1.541945522225,46.572394934081));
#225 = CARTESIAN_POINT('',(1.544421641821,46.832982698984));
#226 = CARTESIAN_POINT('',(1.547063030767,47.071059123584));
#227 = CARTESIAN_POINT('',(1.549866107653,47.283140768029));
#228 = CARTESIAN_POINT('',(1.554945089979,47.596071565589));
#229 = CARTESIAN_POINT('',(1.55714583281,47.711449509993));
#230 = CARTESIAN_POINT('',(1.559416094119,47.809614309948));
#231 = CARTESIAN_POINT('',(1.561743591234,47.888967981995));
#232 = CARTESIAN_POINT('',(1.56411511689,47.948285396323));
#233 = CARTESIAN_POINT('',(1.566516795724,47.986720953552));
#234 = CARTESIAN_POINT('',(1.568934344389,48.003815512819));
#235 = CARTESIAN_POINT('',(1.575023276197,47.992961764244));
#236 = CARTESIAN_POINT('',(1.57865753987,47.937218437348));
#237 = CARTESIAN_POINT('',(1.582216764304,47.8338586121));
#238 = CARTESIAN_POINT('',(1.585663326677,47.685722061037));
#239 = CARTESIAN_POINT('',(1.588962717246,47.496845982476));
#240 = CARTESIAN_POINT('',(1.592084748338,47.272415819937));
#241 = CARTESIAN_POINT('',(1.595004598412,47.018724226109));
#242 = CARTESIAN_POINT('',(1.601346876341,46.371157247309));
#243 = CARTESIAN_POINT('',(1.60462690491,45.955300724914));
#244 = CARTESIAN_POINT('',(1.607550904998,45.505244275861));
#245 = CARTESIAN_POINT('',(1.610130504666,45.028603525837));
#246 = CARTESIAN_POINT('',(1.612379285627,44.531375936128));
#247 = CARTESIAN_POINT('',(1.61431086237,44.018274124838));
#248 = CARTESIAN_POINT('',(1.615937476351,43.492967625433));
#249 = CARTESIAN_POINT('',(1.618165946384,42.59804805414));
#250 = CARTESIAN_POINT('',(1.61892915982,42.233506663506));
#251 = CARTESIAN_POINT('',(1.619561373834,41.865547450363));
#252 = CARTESIAN_POINT('',(1.62006483799,41.494973929936));
#253 = CARTESIAN_POINT('',(1.620441279109,41.122498802448));
#254 = CARTESIAN_POINT('',(1.620691867567,40.748771164795));
#255 = CARTESIAN_POINT('',(1.620817183601,40.374403722222));
#256 = CARTESIAN_POINT('',(1.620817183601,39.477273746061));
#257 = CARTESIAN_POINT('',(1.62057291278,38.954748458284));
#258 = CARTESIAN_POINT('',(1.620084691075,38.433974491557));
#259 = CARTESIAN_POINT('',(1.61935026973,37.916572150515));
#260 = CARTESIAN_POINT('',(1.618365063804,37.404355716776));
#261 = CARTESIAN_POINT('',(1.617122418875,36.899478474645));
#262 = CARTESIAN_POINT('',(1.615613911949,36.404598735269));
#263 = CARTESIAN_POINT('',(1.61243818534,35.547524510715));
#264 = CARTESIAN_POINT('',(1.610877969515,35.179827055514));
#265 = CARTESIAN_POINT('',(1.609144146707,34.821644068451));
#266 = CARTESIAN_POINT('',(1.607231637098,34.474964594823));
#267 = CARTESIAN_POINT('',(1.60513542551,34.142135410615));
#268 = CARTESIAN_POINT('',(1.602850920653,33.825916248755));
#269 = CARTESIAN_POINT('',(1.600374421562,33.529551991461));
#270 = CARTESIAN_POINT('',(1.594903683568,32.970972043659));
#271 = CARTESIAN_POINT('',(1.591863579569,32.70838691684));
#272 = CARTESIAN_POINT('',(1.588604932663,32.477565069322));
#273 = CARTESIAN_POINT('',(1.585156718997,32.285636786067));
#274 = CARTESIAN_POINT('',(1.581554251132,32.138365584846));
#275 = CARTESIAN_POINT('',(1.577837813424,32.040097882202));
#276 = CARTESIAN_POINT('',(1.574051072748,31.993701834091));
#277 = CARTESIAN_POINT('',(1.566569377393,32.007038235756));
#278 = CARTESIAN_POINT('',(1.56293511372,32.062781562652));
#279 = CARTESIAN_POINT('',(1.559375889286,32.1661413879));
#280 = CARTESIAN_POINT('',(1.555929326913,32.314277938963));
#281 = CARTESIAN_POINT('',(1.552629936344,32.503154017524));
#282 = CARTESIAN_POINT('',(1.549507905251,32.727584180063));
#283 = CARTESIAN_POINT('',(1.546588055177,32.981275773891));
#284 = CARTESIAN_POINT('',(1.537792887154,33.879290722014));
#285 = CARTESIAN_POINT('',(1.532715006334,34.624424367021));
#286 = CARTESIAN_POINT('',(1.528617918982,35.447138531976));
#287 = CARTESIAN_POINT('',(1.525433003931,36.318932192544));
#288 = CARTESIAN_POINT('',(1.52309501317,37.220469025579));
#289 = CARTESIAN_POINT('',(1.521551718816,38.139505419592));
#290 = CARTESIAN_POINT('',(1.520775469989,39.068163802902));
#291 = CARTESIAN_POINT('',(1.520775469989,40.));
#292 = ( GEOMETRIC_REPRESENTATION_CONTEXT(2) 
PARAMETRIC_REPRESENTATION_CONTEXT() REPRESENTATION_CONTEXT('2D SPACE',''
  ) );
#293 = PCURVE('',#294,#299);
#294 = CYLINDRICAL_SURFACE('',#295,8.);
#295 = AXIS2_PLACEMENT_3D('',#296,#297,#298);
#296 = CARTESIAN_POINT('',(0.,163.,-40.));
#297 = DIRECTION('',(0.,-1.,2.22044604925E-16));
#298 = DIRECTION('',(1.,0.,0.));
#299 = DEFINITIONAL_REPRESENTATION('',(#300),#380);
#300 = B_SPLINE_CURVE_WITH_KNOTS('',8,(#301,#302,#303,#304,#305,#306,
    #307,#308,#309,#310,#311,#312,#313,#314,#315,#316,#317,#318,#319,
    #320,#321,#322,#323,#324,#325,#326,#327,#328,#329,#330,#331,#332,
    #333,#334,#335,#336,#337,#338,#339,#340,#341,#342,#343,#344,#345,
    #346,#347,#348,#349,#350,#351,#352,#353,#354,#355,#356,#357,#358,
    #359,#360,#361,#362,#363,#364,#365,#366,#367,#368,#369,#370,#371,
    #372,#373,#374,#375,#376,#377,#378,#379),.UNSPECIFIED.,.F.,.F.,(9,7,
    7,7,7,7,7,7,7,7,7,9),(0.,0.129917806103,0.200176661492,
    0.250519357049,0.326896130316,0.429988076376,0.499433951495,
    0.596391273224,0.672007410236,0.751283761578,0.827610694719,1.),
  .UNSPECIFIED.);
#301 = CARTESIAN_POINT('',(0.,3.200125156495));
#302 = CARTESIAN_POINT('',(8.816078251161E-02,3.200125156495));
#303 = CARTESIAN_POINT('',(0.17621061536,3.196567691979));
#304 = CARTESIAN_POINT('',(0.264762984215,3.189468156876));
#305 = CARTESIAN_POINT('',(0.354385547057,3.178940635613));
#306 = CARTESIAN_POINT('',(0.445638676439,3.165207170907));
#307 = CARTESIAN_POINT('',(0.539097474432,3.148657112406));
#308 = CARTESIAN_POINT('',(0.635387739638,3.129936497339));
#309 = CARTESIAN_POINT('',(0.789280193074,3.099291504409));
#310 = CARTESIAN_POINT('',(0.844480302695,3.088166555291));
#311 = CARTESIAN_POINT('',(0.900897168976,3.076847816885));
#312 = CARTESIAN_POINT('',(0.958572522089,3.065545527588));
#313 = CARTESIAN_POINT('',(1.017559949424,3.054505364986));
#314 = CARTESIAN_POINT('',(1.077927000764,3.044004661196));
#315 = CARTESIAN_POINT('',(1.139758797222,3.034344382826));
#316 = CARTESIAN_POINT('',(1.248594366876,3.019740977017));
#317 = CARTESIAN_POINT('',(1.294846729593,3.01423508921));
#318 = CARTESIAN_POINT('',(1.341767612258,3.009460412591));
#319 = CARTESIAN_POINT('',(1.389220427873,3.005543673613));
#320 = CARTESIAN_POINT('',(1.437080300054,3.002587525152));
#321 = CARTESIAN_POINT('',(1.48522968158,3.000663745652));
#322 = CARTESIAN_POINT('',(1.533553913715,2.999809236936));
#323 = CARTESIAN_POINT('',(1.655340088255,3.000351890773));
#324 = CARTESIAN_POINT('',(1.728098248651,3.003138115098));
#325 = CARTESIAN_POINT('',(1.800023210048,3.008298331848));
#326 = CARTESIAN_POINT('',(1.870914906776,3.015594977814));
#327 = CARTESIAN_POINT('',(1.94054973571,3.024665571009));
#328 = CARTESIAN_POINT('',(2.008664573878,3.035061530391));
#329 = CARTESIAN_POINT('',(2.074936282913,3.046298332667));
#330 = CARTESIAN_POINT('',(2.225370267366,3.073599675325));
#331 = CARTESIAN_POINT('',(2.308608298776,3.090145276201));
#332 = CARTESIAN_POINT('',(2.38912401476,3.106737424642));
#333 = CARTESIAN_POINT('',(2.467284491418,3.122725170668));
#334 = CARTESIAN_POINT('',(2.543422861842,3.137623267771));
#335 = CARTESIAN_POINT('',(2.617853816903,3.151081854163));
#336 = CARTESIAN_POINT('',(2.690880272649,3.162848505324));
#337 = CARTESIAN_POINT('',(2.81127923728,3.179412613266));
#338 = CARTESIAN_POINT('',(2.859255160915,3.18523232041));
#339 = CARTESIAN_POINT('',(2.906833240669,3.190148953594));
#340 = CARTESIAN_POINT('',(2.954096140831,3.194120642291));
#341 = CARTESIAN_POINT('',(3.001124115036,3.197117959188));
#342 = CARTESIAN_POINT('',(3.047996329842,3.199122448868));
#343 = CARTESIAN_POINT('',(3.094792188312,3.200125156495));
#344 = CARTESIAN_POINT('',(3.206933435332,3.200125156495));
#345 = CARTESIAN_POINT('',(3.272249311831,3.198170947893));
#346 = CARTESIAN_POINT('',(3.337770605296,3.1942652835));
#347 = CARTESIAN_POINT('',(3.40372011226,3.188443240068));
#348 = CARTESIAN_POINT('',(3.470318338934,3.180774766132));
#349 = CARTESIAN_POINT('',(3.537790373772,3.171372941095));
#350 = CARTESIAN_POINT('',(3.606374397219,3.160407945544));
#351 = CARTESIAN_POINT('',(3.730890995807,3.138548744029));
#352 = CARTESIAN_POINT('',(3.786325522774,3.128163087205));
#353 = CARTESIAN_POINT('',(3.842753039997,3.117086658109));
#354 = CARTESIAN_POINT('',(3.900293340198,3.105466423183));
#355 = CARTESIAN_POINT('',(3.959070656708,3.093487354425));
#356 = CARTESIAN_POINT('',(4.019217624484,3.0813779841));
#357 = CARTESIAN_POINT('',(4.080880923838,3.069413589277));
#358 = CARTESIAN_POINT('',(4.210642647234,3.045863928692));
#359 = CARTESIAN_POINT('',(4.279539345995,3.034210424447));
#360 = CARTESIAN_POINT('',(4.350433404511,3.023479414732));
#361 = CARTESIAN_POINT('',(4.422944315973,3.014216053586));
#362 = CARTESIAN_POINT('',(4.496762559022,3.006925771387));
#363 = CARTESIAN_POINT('',(4.571623925693,3.002004474483));
#364 = CARTESIAN_POINT('',(4.647289572049,2.999685111965));
#365 = CARTESIAN_POINT('',(4.796932741844,3.000351890773));
#366 = CARTESIAN_POINT('',(4.869690902241,3.003138115098));
#367 = CARTESIAN_POINT('',(4.941615863638,3.008298331848));
#368 = CARTESIAN_POINT('',(5.012507560366,3.015594977814));
#369 = CARTESIAN_POINT('',(5.082142389299,3.024665571009));
#370 = CARTESIAN_POINT('',(5.150257227468,3.035061530391));
#371 = CARTESIAN_POINT('',(5.216528936503,3.046298332667));
#372 = CARTESIAN_POINT('',(5.425143599027,3.08415853032));
#373 = CARTESIAN_POINT('',(5.560814103634,3.112810343086));
#374 = CARTESIAN_POINT('',(5.689762123179,3.140057921771));
#375 = CARTESIAN_POINT('',(5.813481777998,3.163399861666));
#376 = CARTESIAN_POINT('',(5.933338398524,3.181570461359));
#377 = CARTESIAN_POINT('',(6.050622934461,3.193914824223));
#378 = CARTESIAN_POINT('',(6.166705782542,3.200125156495));
#379 = CARTESIAN_POINT('',(6.28318530718,3.200125156495));
#380 = ( GEOMETRIC_REPRESENTATION_CONTEXT(2) 
PARAMETRIC_REPRESENTATION_CONTEXT() REPRESENTATION_CONTEXT('2D SPACE',''
  ) );
#381 = ADVANCED_FACE('',(#382,#385),#112,.F.);
#382 = FACE_BOUND('',#383,.F.);
#383 = EDGE_LOOP('',(#384));
#384 = ORIENTED_EDGE('',*,*,#97,.T.);
#385 = FACE_BOUND('',#386,.F.);
#386 = EDGE_LOOP('',(#387));
#387 = ORIENTED_EDGE('',*,*,#388,.F.);
#388 = EDGE_CURVE('',#389,#389,#391,.T.);
#389 = VERTEX_POINT('',#390);
#390 = CARTESIAN_POINT('',(148.,-3.624954525476E-14,-80.));
#391 = SURFACE_CURVE('',#392,(#397,#404),.PCURVE_S1.);
#392 = CIRCLE('',#393,148.);
#393 = AXIS2_PLACEMENT_3D('',#394,#395,#396);
#394 = CARTESIAN_POINT('',(0.,0.,-80.));
#395 = DIRECTION('',(0.,0.,1.));
#396 = DIRECTION('',(1.,0.,-0.));
#397 = PCURVE('',#112,#398);
#398 = DEFINITIONAL_REPRESENTATION('',(#399),#403);
#399 = CIRCLE('',#400,148.);
#400 = AXIS2_PLACEMENT_2D('',#401,#402);
#401 = CARTESIAN_POINT('',(0.,0.));
#402 = DIRECTION('',(1.,0.));
#403 = ( GEOMETRIC_REPRESENTATION_CONTEXT(2) 
PARAMETRIC_REPRESENTATION_CONTEXT() REPRESENTATION_CONTEXT('2D SPACE',''
  ) );
#404 = PCURVE('',#405,#410);
#405 = CYLINDRICAL_SURFACE('',#406,148.);
#406 = AXIS2_PLACEMENT_3D('',#407,#408,#409);
#407 = CARTESIAN_POINT('',(0.,0.,-82.));
#408 = DIRECTION('',(0.,0.,1.));
#409 = DIRECTION('',(1.,0.,0.));
#410 = DEFINITIONAL_REPRESENTATION('',(#411),#415);
#411 = LINE('',#412,#413);
#412 = CARTESIAN_POINT('',(0.,2.));
#413 = VECTOR('',#414,1.);
#414 = DIRECTION('',(1.,0.));
#415 = ( GEOMETRIC_REPRESENTATION_CONTEXT(2) 
PARAMETRIC_REPRESENTATION_CONTEXT() REPRESENTATION_CONTEXT('2D SPACE',''
  ) );
#416 = ADVANCED_FACE('',(#417,#420),#84,.T.);
#417 = FACE_BOUND('',#418,.T.);
#418 = EDGE_LOOP('',(#419));
#419 = ORIENTED_EDGE('',*,*,#69,.T.);
#420 = FACE_BOUND('',#421,.T.);
#421 = EDGE_LOOP('',(#422));
#422 = ORIENTED_EDGE('',*,*,#423,.F.);
#423 = EDGE_CURVE('',#424,#424,#426,.T.);
#424 = VERTEX_POINT('',#425);
#425 = CARTESIAN_POINT('',(148.,-3.624954525476E-14,0.));
#426 = SURFACE_CURVE('',#427,(#432,#439),.PCURVE_S1.);
#427 = CIRCLE('',#428,148.);
#428 = AXIS2_PLACEMENT_3D('',#429,#430,#431);
#429 = CARTESIAN_POINT('',(0.,0.,0.));
#430 = DIRECTION('',(0.,0.,1.));
#431 = DIRECTION('',(1.,0.,-0.));
#432 = PCURVE('',#84,#433);
#433 = DEFINITIONAL_REPRESENTATION('',(#434),#438);
#434 = CIRCLE('',#435,148.);
#435 = AXIS2_PLACEMENT_2D('',#436,#437);
#436 = CARTESIAN_POINT('',(0.,0.));
#437 = DIRECTION('',(1.,0.));
#438 = ( GEOMETRIC_REPRESENTATION_CONTEXT(2) 
PARAMETRIC_REPRESENTATION_CONTEXT() REPRESENTATION_CONTEXT('2D SPACE',''
  ) );
#439 = PCURVE('',#405,#440);
#440 = DEFINITIONAL_REPRESENTATION('',(#441),#445);
#441 = LINE('',#442,#443);
#442 = CARTESIAN_POINT('',(0.,82.));
#443 = VECTOR('',#444,1.);
#444 = DIRECTION('',(1.,0.));
#445 = ( GEOMETRIC_REPRESENTATION_CONTEXT(2) 
PARAMETRIC_REPRESENTATION_CONTEXT() REPRESENTATION_CONTEXT('2D SPACE',''
  ) );
#446 = ADVANCED_FACE('',(#447),#294,.F.);
#447 = FACE_BOUND('',#448,.F.);
#448 = EDGE_LOOP('',(#449,#700,#721,#722));
#449 = ORIENTED_EDGE('',*,*,#450,.F.);
#450 = EDGE_CURVE('',#451,#451,#453,.T.);
#451 = VERTEX_POINT('',#452);
#452 = CARTESIAN_POINT('',(8.,147.78362561528,-40.));
#453 = SURFACE_CURVE('',#454,(#534,#617),.PCURVE_S1.);
#454 = B_SPLINE_CURVE_WITH_KNOTS('',8,(#455,#456,#457,#458,#459,#460,
    #461,#462,#463,#464,#465,#466,#467,#468,#469,#470,#471,#472,#473,
    #474,#475,#476,#477,#478,#479,#480,#481,#482,#483,#484,#485,#486,
    #487,#488,#489,#490,#491,#492,#493,#494,#495,#496,#497,#498,#499,
    #500,#501,#502,#503,#504,#505,#506,#507,#508,#509,#510,#511,#512,
    #513,#514,#515,#516,#517,#518,#519,#520,#521,#522,#523,#524,#525,
    #526,#527,#528,#529,#530,#531,#532,#533),.UNSPECIFIED.,.T.,.F.,(9,7,
    7,7,7,7,7,7,7,7,7,9),(0.,0.129916234453,0.200177156552,
    0.250518831258,0.32689566674,0.429990478649,0.499434651172,
    0.596390352076,0.67200904642,0.751284971556,0.827611505396,1.),
  .UNSPECIFIED.);
#455 = CARTESIAN_POINT('',(8.,147.78362561528,-40.));
#456 = CARTESIAN_POINT('',(8.,147.78362561528,-39.29469397478));
#457 = CARTESIAN_POINT('',(7.928934560741,147.78747255247,
    -38.59027451579));
#458 = CARTESIAN_POINT('',(7.787117882379,147.79514977568,
    -37.89019760542));
#459 = CARTESIAN_POINT('',(7.573271584265,147.80653371518,
    -37.19817503656));
#460 = CARTESIAN_POINT('',(7.284840766309,147.82138386671,
    -36.51893106082));
#461 = CARTESIAN_POINT('',(6.918237695069,147.83927877423,
    -35.85876738381));
#462 = CARTESIAN_POINT('',(6.469170822481,147.85951960535,
    -35.22629884993));
#463 = CARTESIAN_POINT('',(5.643363765573,147.89265227001,
    -34.31324654702));
#464 = CARTESIAN_POINT('',(5.327364355858,147.90468039805,
    -34.00362784963));
#465 = CARTESIAN_POINT('',(4.98482034422,147.91691784217,-33.70748187191
    ));
#466 = CARTESIAN_POINT('',(4.615529159459,147.92913734112,-33.427612941)
  );
#467 = CARTESIAN_POINT('',(4.219503740054,147.9410733339,-33.16702575088
    ));
#468 = CARTESIAN_POINT('',(3.797008846387,147.95242603964,-32.9289478966
    ));
#469 = CARTESIAN_POINT('',(3.348613876114,147.96287011116,-32.7168630978
    ));
#470 = CARTESIAN_POINT('',(2.53610755365,147.97865801448,-32.40393215569
    ));
#471 = CARTESIAN_POINT('',(2.184036759702,147.9846103742,-32.28855535699
    ));
#472 = CARTESIAN_POINT('',(1.820827227679,147.98977226288,
    -32.19039015087));
#473 = CARTESIAN_POINT('',(1.448445783803,147.99400666027,
    -32.11103527867));
#474 = CARTESIAN_POINT('',(1.069008171234,147.99720257715,
    -32.05171643798));
#475 = CARTESIAN_POINT('',(0.684737827329,147.99928240383,
    -32.01327965966));
#476 = CARTESIAN_POINT('',(0.297923920639,148.00020623443,
    -31.99618441152));
#477 = CARTESIAN_POINT('',(-0.676334497601,147.99961956387,
    -32.00703848853));
#478 = CARTESIAN_POINT('',(-1.257829624039,147.99660721339,
    -32.06278578403));
#479 = CARTESIAN_POINT('',(-1.827297856378,147.99102831937,
    -32.16615082415));
#480 = CARTESIAN_POINT('',(-2.378709548625,147.98313976532,
    -32.31429203768));
#481 = CARTESIAN_POINT('',(-2.90653700622,147.97333343289,
    -32.50317086525));
#482 = CARTESIAN_POINT('',(-3.405949185432,147.96209426558,-32.727600647
    ));
#483 = CARTESIAN_POINT('',(-3.872978370042,147.94994607751,
    -32.9812873062));
#484 = CARTESIAN_POINT('',(-4.887348786994,147.92043008624,
    -33.62883722383));
#485 = CARTESIAN_POINT('',(-5.411890825093,147.90254182572,
    -34.04468669875));
#486 = CARTESIAN_POINT('',(-5.879437145915,147.88460282579,
    -34.49473560813));
#487 = CARTESIAN_POINT('',(-6.291865408203,147.86731680614,
    -34.97136995327));
#488 = CARTESIAN_POINT('',(-6.651365731155,147.85120843574,
    -35.46859424592));
#489 = CARTESIAN_POINT('',(-6.96013082767,147.83665609146,
    -35.98169799844));
#490 = CARTESIAN_POINT('',(-7.2201303736,147.82393285398,-36.50701379764
    ));
#491 = CARTESIAN_POINT('',(-7.576305494395,147.8060221967,
    -37.40194561543));
#492 = CARTESIAN_POINT('',(-7.698280196786,147.79972945864,
    -37.76648305309));
#493 = CARTESIAN_POINT('',(-7.799315283178,147.79441310591,
    -38.13444052301));
#494 = CARTESIAN_POINT('',(-7.879772474413,147.79011846172,
    -38.50501425822));
#495 = CARTESIAN_POINT('',(-7.93992938305,147.78687738809,
    -38.87749121105));
#496 = CARTESIAN_POINT('',(-7.979974136472,147.78470987261,
    -39.25122182991));
#497 = CARTESIAN_POINT('',(-8.,147.78362561528,-39.62559283598));
#498 = CARTESIAN_POINT('',(-8.,147.78362561528,-40.52273513661));
#499 = CARTESIAN_POINT('',(-7.960964236858,147.78573879173,
    -41.04526944104));
#500 = CARTESIAN_POINT('',(-7.882943757216,147.78996217064,
    -41.56605087041));
#501 = CARTESIAN_POINT('',(-7.765577218926,147.79625776038,
    -42.08345752847));
#502 = CARTESIAN_POINT('',(-7.608127781675,147.80454980434,
    -42.59567390368));
#503 = CARTESIAN_POINT('',(-7.409525595119,147.81471587401,
    -43.10054604131));
#504 = CARTESIAN_POINT('',(-7.168415884551,147.82657180264,
    -43.59541564973));
#505 = CARTESIAN_POINT('',(-6.660773961345,147.85020688674,
    -44.45248324902));
#506 = CARTESIAN_POINT('',(-6.411352096684,147.86143639439,
    -44.82018392278));
#507 = CARTESIAN_POINT('',(-6.13415949515,147.8734125541,-45.1783669389)
  );
#508 = CARTESIAN_POINT('',(-5.828377633294,147.88597643692,
    -45.52504449509));
#509 = CARTESIAN_POINT('',(-5.493197486751,147.89892804797,
    -45.85787089739));
#510 = CARTESIAN_POINT('',(-5.127877479769,147.91202032065,
    -46.17408727861));
#511 = CARTESIAN_POINT('',(-4.731818906678,147.9249556703,
    -46.47044934791));
#512 = CARTESIAN_POINT('',(-3.856839527109,147.95041568303,
    -47.02901534679));
#513 = CARTESIAN_POINT('',(-3.370574817736,147.96301436312,
    -47.29159547984));
#514 = CARTESIAN_POINT('',(-2.849306069027,147.97461576455,
    -47.52241736373));
#515 = CARTESIAN_POINT('',(-2.297665504239,147.98463050423,
    -47.71434892354));
#516 = CARTESIAN_POINT('',(-1.721304973477,147.99251218678,
    -47.86162525154));
#517 = CARTESIAN_POINT('',(-1.126677814671,147.99783280251,
    -47.95989845797));
#518 = CARTESIAN_POINT('',(-0.520782734991,148.00034043364,
    -48.00629842741));
#519 = CARTESIAN_POINT('',(0.676334492837,147.99961956387,
    -47.99296151152));
#520 = CARTESIAN_POINT('',(1.257829631769,147.99660721332,
    -47.93721421442));
#521 = CARTESIAN_POINT('',(1.827297856909,147.99102831942,
    -47.83384917684));
#522 = CARTESIAN_POINT('',(2.378709541636,147.98313976541,
    -47.68570796426));
#523 = CARTESIAN_POINT('',(2.906537005528,147.97333343285,-47.4968291338
    ));
#524 = CARTESIAN_POINT('',(3.405949192509,147.96209426546,
    -47.27239935042));
#525 = CARTESIAN_POINT('',(3.872978366607,147.94994607761,
    -47.01871269599));
#526 = CARTESIAN_POINT('',(5.279637521201,147.90901533019,
    -46.12073499033));
#527 = CARTESIAN_POINT('',(6.091601159841,147.87803880737,
    -45.37563310472));
#528 = CARTESIAN_POINT('',(6.746582273358,147.84857862954,
    -44.55294602618));
#529 = CARTESIAN_POINT('',(7.25565044606,147.82333933504,-43.68116674503
    ));
#530 = CARTESIAN_POINT('',(7.629308169038,147.80369057087,
    -42.77962624378));
#531 = CARTESIAN_POINT('',(7.875944793856,147.79034148813,
    -41.86056888799));
#532 = CARTESIAN_POINT('',(8.,147.78362561528,-40.93187647794));
#533 = CARTESIAN_POINT('',(8.,147.78362561528,-40.));
#534 = PCURVE('',#294,#535);
#535 = DEFINITIONAL_REPRESENTATION('',(#536),#616);
#536 = B_SPLINE_CURVE_WITH_KNOTS('',8,(#537,#538,#539,#540,#541,#542,
    #543,#544,#545,#546,#547,#548,#549,#550,#551,#552,#553,#554,#555,
    #556,#557,#558,#559,#560,#561,#562,#563,#564,#565,#566,#567,#568,
    #569,#570,#571,#572,#573,#574,#575,#576,#577,#578,#579,#580,#581,
    #582,#583,#584,#585,#586,#587,#588,#589,#590,#591,#592,#593,#594,
    #595,#596,#597,#598,#599,#600,#601,#602,#603,#604,#605,#606,#607,
    #608,#609,#610,#611,#612,#613,#614,#615),.UNSPECIFIED.,.F.,.F.,(9,7,
    7,7,7,7,7,7,7,7,7,9),(0.,0.129916234453,0.200177156552,
    0.250518831258,0.32689566674,0.429990478649,0.499434651172,
    0.596390352076,0.67200904642,0.751284971556,0.827611505396,1.),
  .UNSPECIFIED.);
#537 = CARTESIAN_POINT('',(0.,15.216374384711));
#538 = CARTESIAN_POINT('',(8.816325315193E-02,15.216374384711));
#539 = CARTESIAN_POINT('',(0.176215544154,15.212527447528));
#540 = CARTESIAN_POINT('',(0.264769910219,15.204850224311));
#541 = CARTESIAN_POINT('',(0.354393651959,15.193466284811));
#542 = CARTESIAN_POINT('',(0.445646837559,15.178616133289));
#543 = CARTESIAN_POINT('',(0.539104360456,15.160721225765));
#544 = CARTESIAN_POINT('',(0.635391928896,15.140480394641));
#545 = CARTESIAN_POINT('',(0.789280169751,15.107347729987));
#546 = CARTESIAN_POINT('',(0.844479860379,15.095319601945));
#547 = CARTESIAN_POINT('',(0.900896133154,15.083082157826));
#548 = CARTESIAN_POINT('',(0.958570917842,15.070862658874));
#549 = CARTESIAN_POINT('',(1.017557986226,15.058926666097));
#550 = CARTESIAN_POINT('',(1.077925064847,15.047573960354));
#551 = CARTESIAN_POINT('',(1.139757452707,15.037129888837));
#552 = CARTESIAN_POINT('',(1.248593072636,15.021341985512));
#553 = CARTESIAN_POINT('',(1.294844687893,15.015389625792));
#554 = CARTESIAN_POINT('',(1.341765248783,15.010227737119));
#555 = CARTESIAN_POINT('',(1.389218080201,15.005993339723));
#556 = CARTESIAN_POINT('',(1.437078241078,15.002797422841));
#557 = CARTESIAN_POINT('',(1.485228135221,15.000717596162));
#558 = CARTESIAN_POINT('',(1.533553064769,14.999793765565));
#559 = CARTESIAN_POINT('',(1.655342924549,15.00038043613));
#560 = CARTESIAN_POINT('',(1.728102891551,15.003392786603));
#561 = CARTESIAN_POINT('',(1.800028820975,15.008971680623));
#562 = CARTESIAN_POINT('',(1.870920772922,15.016860234676));
#563 = CARTESIAN_POINT('',(1.940555210884,15.026666567107));
#564 = CARTESIAN_POINT('',(2.008669013626,15.03790573442));
#565 = CARTESIAN_POINT('',(2.074938961944,15.050053922488));
#566 = CARTESIAN_POINT('',(2.225368982978,15.079569913759));
#567 = CARTESIAN_POINT('',(2.308605774439,15.097458174277));
#568 = CARTESIAN_POINT('',(2.389120440993,15.115397174204));
#569 = CARTESIAN_POINT('',(2.46728022234,15.132683193852));
#570 = CARTESIAN_POINT('',(2.543418420577,15.148791564259));
#571 = CARTESIAN_POINT('',(2.617849902827,15.163343908531));
#572 = CARTESIAN_POINT('',(2.690877773383,15.176067146012));
#573 = CARTESIAN_POINT('',(2.81127838561,15.193977803298));
#574 = CARTESIAN_POINT('',(2.859253814816,15.200270541351));
#575 = CARTESIAN_POINT('',(2.906831698086,15.205586894083));
#576 = CARTESIAN_POINT('',(2.954094646765,15.209881538273));
#577 = CARTESIAN_POINT('',(3.001122862294,15.213122611909));
#578 = CARTESIAN_POINT('',(3.047995454204,15.215290127385));
#579 = CARTESIAN_POINT('',(3.094791758088,15.216374384711));
#580 = CARTESIAN_POINT('',(3.206934545667,15.216374384711));
#581 = CARTESIAN_POINT('',(3.272251549279,15.214261208265));
#582 = CARTESIAN_POINT('',(3.337773797159,15.21003782936));
#583 = CARTESIAN_POINT('',(3.403723909695,15.203742239615));
#584 = CARTESIAN_POINT('',(3.470322237287,15.195450195655));
#585 = CARTESIAN_POINT('',(3.53779373751,15.185284125981));
#586 = CARTESIAN_POINT('',(3.606376487086,15.173428197354));
#587 = CARTESIAN_POINT('',(3.730892123149,15.149793113251));
#588 = CARTESIAN_POINT('',(3.786327201008,15.138563605604));
#589 = CARTESIAN_POINT('',(3.842754832089,15.126587445899));
#590 = CARTESIAN_POINT('',(3.900294937432,15.114023563074));
#591 = CARTESIAN_POINT('',(3.95907186919,15.101071952022));
#592 = CARTESIAN_POINT('',(4.01921837331,15.087979679348));
#593 = CARTESIAN_POINT('',(4.080881234984,15.075044329699));
#594 = CARTESIAN_POINT('',(4.210639717954,15.049584316968));
#595 = CARTESIAN_POINT('',(4.279534560024,15.036985636879));
#596 = CARTESIAN_POINT('',(4.350427575789,15.025384235449));
#597 = CARTESIAN_POINT('',(4.422938133567,15.01536949577));
#598 = CARTESIAN_POINT('',(4.496756690502,15.007487813218));
#599 = CARTESIAN_POINT('',(4.571619097905,15.002167197486));
#600 = CARTESIAN_POINT('',(4.647286637808,14.999659566359));
#601 = CARTESIAN_POINT('',(4.796935577544,15.000380436127));
#602 = CARTESIAN_POINT('',(4.869695546153,15.003392786677));
#603 = CARTESIAN_POINT('',(4.941621474596,15.008971680577));
#604 = CARTESIAN_POINT('',(5.012513425578,15.016860234584));
#605 = CARTESIAN_POINT('',(5.082147864425,15.026666567149));
#606 = CARTESIAN_POINT('',(5.150261668185,15.03790573454));
#607 = CARTESIAN_POINT('',(5.216531615024,15.050053922388));
#608 = CARTESIAN_POINT('',(5.425137625883,15.09098466981));
#609 = CARTESIAN_POINT('',(5.560803845083,15.121961192627));
#610 = CARTESIAN_POINT('',(5.689749321975,15.151421370459));
#611 = CARTESIAN_POINT('',(5.813468306447,15.176660664956));
#612 = CARTESIAN_POINT('',(5.933326176616,15.196309429121));
#613 = CARTESIAN_POINT('',(6.050613646181,15.209658511864));
#614 = CARTESIAN_POINT('',(6.166700747437,15.216374384711));
#615 = CARTESIAN_POINT('',(6.28318530718,15.216374384711));
#616 = ( GEOMETRIC_REPRESENTATION_CONTEXT(2) 
PARAMETRIC_REPRESENTATION_CONTEXT() REPRESENTATION_CONTEXT('2D SPACE',''
  ) );
#617 = PCURVE('',#405,#618);
#618 = DEFINITIONAL_REPRESENTATION('',(#619),#699);
#619 = B_SPLINE_CURVE_WITH_KNOTS('',8,(#620,#621,#622,#623,#624,#625,
    #626,#627,#628,#629,#630,#631,#632,#633,#634,#635,#636,#637,#638,
    #639,#640,#641,#642,#643,#644,#645,#646,#647,#648,#649,#650,#651,
    #652,#653,#654,#655,#656,#657,#658,#659,#660,#661,#662,#663,#664,
    #665,#666,#667,#668,#669,#670,#671,#672,#673,#674,#675,#676,#677,
    #678,#679,#680,#681,#682,#683,#684,#685,#686,#687,#688,#689,#690,
    #691,#692,#693,#694,#695,#696,#697,#698),.UNSPECIFIED.,.F.,.F.,(9,7,
    7,7,7,7,7,7,7,7,7,9),(0.,0.129916234453,0.200177156552,
    0.250518831258,0.32689566674,0.429990478649,0.499434651172,
    0.596390352076,0.67200904642,0.751284971556,0.827611505396,1.),
  .UNSPECIFIED.);
#620 = CARTESIAN_POINT('',(1.516715915181,42.));
#621 = CARTESIAN_POINT('',(1.516715915181,42.705306025215));
#622 = CARTESIAN_POINT('',(1.517196790028,43.409725484205));
#623 = CARTESIAN_POINT('',(1.518156414094,44.109802394575));
#624 = CARTESIAN_POINT('',(1.519603366396,44.801824963431));
#625 = CARTESIAN_POINT('',(1.521554798317,45.481068939176));
#626 = CARTESIAN_POINT('',(1.524034774416,46.141232616186));
#627 = CARTESIAN_POINT('',(1.527072053576,46.773701150063));
#628 = CARTESIAN_POINT('',(1.532656320175,47.68675345298));
#629 = CARTESIAN_POINT('',(1.534792992936,47.99637215037));
#630 = CARTESIAN_POINT('',(1.537108945308,48.292518128088));
#631 = CARTESIAN_POINT('',(1.539605503103,48.572387058993));
#632 = CARTESIAN_POINT('',(1.54228253977,48.832974249111));
#633 = CARTESIAN_POINT('',(1.545138236501,49.0710521034));
#634 = CARTESIAN_POINT('',(1.548168731349,49.283136902198));
#635 = CARTESIAN_POINT('',(1.553659675243,49.59606784431));
#636 = CARTESIAN_POINT('',(1.556038864367,49.711444643007));
#637 = CARTESIAN_POINT('',(1.558493215526,49.809609849125));
#638 = CARTESIAN_POINT('',(1.561009448267,49.888964721327));
#639 = CARTESIAN_POINT('',(1.56357328413,49.948283562014));
#640 = CARTESIAN_POINT('',(1.566169723622,49.98672034034));
#641 = CARTESIAN_POINT('',(1.568783326893,50.003815588478));
#642 = CARTESIAN_POINT('',(1.575366155237,49.99296151147));
#643 = CARTESIAN_POINT('',(1.579295187978,49.937214215961));
#644 = CARTESIAN_POINT('',(1.583143063222,49.833849175841));
#645 = CARTESIAN_POINT('',(1.586869127459,49.685707962312));
#646 = CARTESIAN_POINT('',(1.590436087002,49.496829134747));
#647 = CARTESIAN_POINT('',(1.593811312464,49.272399352993));
#648 = CARTESIAN_POINT('',(1.596967967507,49.018712693798));
#649 = CARTESIAN_POINT('',(1.603824722588,48.371162776161));
#650 = CARTESIAN_POINT('',(1.607370941525,47.955313301246));
#651 = CARTESIAN_POINT('',(1.610532320468,47.505264391866));
#652 = CARTESIAN_POINT('',(1.613321417112,47.028630046722));
#653 = CARTESIAN_POINT('',(1.615752896546,46.531405754072));
#654 = CARTESIAN_POINT('',(1.617841457094,46.018302001553));
#655 = CARTESIAN_POINT('',(1.619600311406,45.492986202353));
#656 = CARTESIAN_POINT('',(1.622009940899,44.598054384561));
#657 = CARTESIAN_POINT('',(1.622835189735,44.23351694691));
#658 = CARTESIAN_POINT('',(1.623518803074,43.865559476987));
#659 = CARTESIAN_POINT('',(1.624063206422,43.494985741778));
#660 = CARTESIAN_POINT('',(1.6244702616,43.122508788945));
#661 = CARTESIAN_POINT('',(1.624741230428,42.74877817009));
#662 = CARTESIAN_POINT('',(1.624876738409,42.374407164018));
#663 = CARTESIAN_POINT('',(1.624876738409,41.477264863386));
#664 = CARTESIAN_POINT('',(1.624612597007,40.954730558958));
#665 = CARTESIAN_POINT('',(1.624084659947,40.433949129589));
#666 = CARTESIAN_POINT('',(1.623290502787,39.916542471523));
#667 = CARTESIAN_POINT('',(1.622225181918,39.404326096317));
#668 = CARTESIAN_POINT('',(1.620881521939,38.899453958688));
#669 = CARTESIAN_POINT('',(1.619250439398,38.404584350269));
#670 = CARTESIAN_POINT('',(1.615816710795,37.547516750977));
#671 = CARTESIAN_POINT('',(1.614129722755,37.179816077213));
#672 = CARTESIAN_POINT('',(1.612255057792,36.821633061096));
#673 = CARTESIAN_POINT('',(1.610187230838,36.474955504902));
#674 = CARTESIAN_POINT('',(1.607920825369,36.142129102605));
#675 = CARTESIAN_POINT('',(1.605450881593,35.825912721383));
#676 = CARTESIAN_POINT('',(1.602773400231,35.529550652084));
#677 = CARTESIAN_POINT('',(1.596858875117,34.97098465321));
#678 = CARTESIAN_POINT('',(1.593572216916,34.708404520156));
#679 = CARTESIAN_POINT('',(1.5900492984,34.477582636263));
#680 = CARTESIAN_POINT('',(1.586321449288,34.285651076459));
#681 = CARTESIAN_POINT('',(1.582426839632,34.13837474846));
#682 = CARTESIAN_POINT('',(1.578409004562,34.04010154203));
#683 = CARTESIAN_POINT('',(1.574315129769,33.993701572588));
#684 = CARTESIAN_POINT('',(1.566226498385,34.007038488477));
#685 = CARTESIAN_POINT('',(1.562297465559,34.06278578558));
#686 = CARTESIAN_POINT('',(1.558449590364,34.166150823155));
#687 = CARTESIAN_POINT('',(1.554723526178,34.314292035737));
#688 = CARTESIAN_POINT('',(1.551156566592,34.503170866197));
#689 = CARTESIAN_POINT('',(1.547781341078,34.727600649579));
#690 = CARTESIAN_POINT('',(1.544624686106,34.981287304009));
#691 = CARTESIAN_POINT('',(1.535116209573,35.879265009666));
#692 = CARTESIAN_POINT('',(1.529626202461,36.624366895277));
#693 = CARTESIAN_POINT('',(1.525196299392,37.44705397382));
#694 = CARTESIAN_POINT('',(1.521752453293,38.318833254962));
#695 = CARTESIAN_POINT('',(1.519224257267,39.220373756219));
#696 = CARTESIAN_POINT('',(1.517555353195,40.139431112008));
#697 = CARTESIAN_POINT('',(1.516715915181,41.068123522055));
#698 = CARTESIAN_POINT('',(1.516715915181,42.));
#699 = ( GEOMETRIC_REPRESENTATION_CONTEXT(2) 
PARAMETRIC_REPRESENTATION_CONTEXT() REPRESENTATION_CONTEXT('2D SPACE',''
  ) );
#700 = ORIENTED_EDGE('',*,*,#701,.F.);
#701 = EDGE_CURVE('',#127,#451,#702,.T.);
#702 = SEAM_CURVE('',#703,(#707,#714),.PCURVE_S1.);
#703 = LINE('',#704,#705);
#704 = CARTESIAN_POINT('',(8.,163.,-40.));
#705 = VECTOR('',#706,1.);
#706 = DIRECTION('',(0.,-1.,2.22044604925E-16));
#707 = PCURVE('',#294,#708);
#708 = DEFINITIONAL_REPRESENTATION('',(#709),#713);
#709 = LINE('',#710,#711);
#710 = CARTESIAN_POINT('',(6.28318530718,-0.));
#711 = VECTOR('',#712,1.);
#712 = DIRECTION('',(0.,1.));
#713 = ( GEOMETRIC_REPRESENTATION_CONTEXT(2) 
PARAMETRIC_REPRESENTATION_CONTEXT() REPRESENTATION_CONTEXT('2D SPACE',''
  ) );
#714 = PCURVE('',#294,#715);
#715 = DEFINITIONAL_REPRESENTATION('',(#716),#720);
#716 = LINE('',#717,#718);
#717 = CARTESIAN_POINT('',(0.,-0.));
#718 = VECTOR('',#719,1.);
#719 = DIRECTION('',(0.,1.));
#720 = ( GEOMETRIC_REPRESENTATION_CONTEXT(2) 
PARAMETRIC_REPRESENTATION_CONTEXT() REPRESENTATION_CONTEXT('2D SPACE',''
  ) );
#721 = ORIENTED_EDGE('',*,*,#126,.T.);
#722 = ORIENTED_EDGE('',*,*,#701,.T.);
#723 = ADVANCED_FACE('',(#724,#750),#405,.F.);
#724 = FACE_BOUND('',#725,.F.);
#725 = EDGE_LOOP('',(#726,#747,#748,#749));
#726 = ORIENTED_EDGE('',*,*,#727,.T.);
#727 = EDGE_CURVE('',#389,#424,#728,.T.);
#728 = SEAM_CURVE('',#729,(#733,#740),.PCURVE_S1.);
#729 = LINE('',#730,#731);
#730 = CARTESIAN_POINT('',(148.,-3.624954525476E-14,-82.));
#731 = VECTOR('',#732,1.);
#732 = DIRECTION('',(0.,0.,1.));
#733 = PCURVE('',#405,#734);
#734 = DEFINITIONAL_REPRESENTATION('',(#735),#739);
#735 = LINE('',#736,#737);
#736 = CARTESIAN_POINT('',(6.28318530718,-0.));
#737 = VECTOR('',#738,1.);
#738 = DIRECTION('',(0.,1.));
#739 = ( GEOMETRIC_REPRESENTATION_CONTEXT(2) 
PARAMETRIC_REPRESENTATION_CONTEXT() REPRESENTATION_CONTEXT('2D SPACE',''
  ) );
#740 = PCURVE('',#405,#741);
#741 = DEFINITIONAL_REPRESENTATION('',(#742),#746);
#742 = LINE('',#743,#744);
#743 = CARTESIAN_POINT('',(0.,-0.));
#744 = VECTOR('',#745,1.);
#745 = DIRECTION('',(0.,1.));
#746 = ( GEOMETRIC_REPRESENTATION_CONTEXT(2) 
PARAMETRIC_REPRESENTATION_CONTEXT() REPRESENTATION_CONTEXT('2D SPACE',''
  ) );
#747 = ORIENTED_EDGE('',*,*,#423,.F.);
#748 = ORIENTED_EDGE('',*,*,#727,.F.);
#749 = ORIENTED_EDGE('',*,*,#388,.T.);
#750 = FACE_BOUND('',#751,.F.);
#751 = EDGE_LOOP('',(#752));
#752 = ORIENTED_EDGE('',*,*,#450,.T.);
#753 = ( GEOMETRIC_REPRESENTATION_CONTEXT(3) 
GLOBAL_UNCERTAINTY_ASSIGNED_CONTEXT((#757)) GLOBAL_UNIT_ASSIGNED_CONTEXT
((#754,#755,#756)) REPRESENTATION_CONTEXT('Context #1',
  '3D Context with UNIT and UNCERTAINTY') );
#754 = ( LENGTH_UNIT() NAMED_UNIT(*) SI_UNIT(.MILLI.,.METRE.) );
#755 = ( NAMED_UNIT(*) PLANE_ANGLE_UNIT() SI_UNIT($,.RADIAN.) );
#756 = ( NAMED_UNIT(*) SI_UNIT($,.STERADIAN.) SOLID_ANGLE_UNIT() );
#757 = UNCERTAINTY_MEASURE_WITH_UNIT(LENGTH_MEASURE(1.E-07),#754,
  'distance_accuracy_value','confusion accuracy');
#758 = CONTEXT_DEPENDENT_SHAPE_REPRESENTATION(#759,#761);
#759 = ( REPRESENTATION_RELATIONSHIP('','',#32,#10) 
REPRESENTATION_RELATIONSHIP_WITH_TRANSFORMATION(#760) 
SHAPE_REPRESENTATION_RELATIONSHIP() );
#760 = ITEM_DEFINED_TRANSFORMATION('','',#11,#15);
#761 = PRODUCT_DEFINITION_SHAPE('Placement','Placement of an item',#762
  );
#762 = NEXT_ASSEMBLY_USAGE_OCCURRENCE('1','=>[0:1:1:2]','',#5,#27,$);
#763 = PRODUCT_RELATED_PRODUCT_CATEGORY('part',$,(#29));
ENDSEC;
END-ISO-10303-21;
